<svg xmlns="http://www.w3.org/2000/svg" width="1200" height="630" viewBox="0 0 1200 630">
<rect width="1200" height="630" fill="#000000"/>
<circle cx="243" cy="327" r="1.6" fill="white" opacity="0.92"/><circle cx="210" cy="228" r="1.6" fill="white" opacity="0.72"/><circle cx="861" cy="586" r="1.6" fill="white" opacity="0.86"/><circle cx="1005" cy="600" r="1.2" fill="white" opacity="0.49"/><circle cx="165" cy="113" r="1.0" fill="white" opacity="0.84"/><circle cx="920" cy="11" r="1.2" fill="white" opacity="0.76"/><circle cx="430" cy="406" r="1.0" fill="white" opacity="0.56"/><circle cx="730" cy="385" r="1.6" fill="white" opacity="0.73"/><circle cx="697" cy="91" r="1.6" fill="white" opacity="0.67"/><circle cx="589" cy="468" r="0.8" fill="white" opacity="0.88"/><circle cx="1182" cy="316" r="0.6" fill="white" opacity="0.86"/><circle cx="755" cy="372" r="1.2" fill="white" opacity="0.6"/><circle cx="816" cy="599" r="1.6" fill="white" opacity="0.65"/><circle cx="238" cy="435" r="1.6" fill="white" opacity="0.83"/><circle cx="1005" cy="407" r="1.6" fill="white" opacity="0.51"/><circle cx="860" cy="577" r="1.2" fill="white" opacity="0.66"/><circle cx="51" cy="589" r="0.8" fill="white" opacity="0.81"/><circle cx="100" cy="535" r="0.6" fill="white" opacity="0.78"/><circle cx="879" cy="481" r="0.8" fill="white" opacity="0.64"/><circle cx="468" cy="124" r="1.2" fill="white" opacity="0.75"/><circle cx="1117" cy="257" r="1.6" fill="white" opacity="0.59"/><circle cx="630" cy="561" r="1.6" fill="white" opacity="0.77"/><circle cx="823" cy="443" r="0.8" fill="white" opacity="0.53"/><circle cx="550" cy="9" r="0.6" fill="white" opacity="0.44"/><circle cx="938" cy="535" r="1.2" fill="white" opacity="0.57"/><circle cx="409" cy="266" r="1.2" fill="white" opacity="0.63"/><circle cx="1018" cy="444" r="1.6" fill="white" opacity="0.75"/><circle cx="68" cy="297" r="1.0" fill="white" opacity="0.62"/><circle cx="201" cy="448" r="1.6" fill="white" opacity="0.51"/><circle cx="374" cy="435" r="1.2" fill="white" opacity="0.91"/><circle cx="545" cy="510" r="1.0" fill="white" opacity="0.41"/><circle cx="842" cy="149" r="1.2" fill="white" opacity="0.9"/><circle cx="188" cy="0" r="1.2" fill="white" opacity="0.7"/><circle cx="170" cy="624" r="0.8" fill="white" opacity="0.5"/><circle cx="91" cy="559" r="1.0" fill="white" opacity="0.75"/><circle cx="731" cy="158" r="0.6" fill="white" opacity="0.54"/><circle cx="1194" cy="588" r="1.2" fill="white" opacity="0.76"/><circle cx="276" cy="558" r="0.8" fill="white" opacity="0.63"/><circle cx="268" cy="612" r="1.6" fill="white" opacity="0.52"/><circle cx="855" cy="163" r="0.8" fill="white" opacity="0.82"/><circle cx="1200" cy="313" r="1.6" fill="white" opacity="0.6"/><circle cx="304" cy="532" r="0.8" fill="white" opacity="0.58"/><circle cx="217" cy="398" r="0.6" fill="white" opacity="0.38"/><circle cx="710" cy="361" r="0.6" fill="white" opacity="0.37"/><circle cx="974" cy="335" r="1.0" fill="white" opacity="0.62"/><circle cx="248" cy="509" r="1.2" fill="white" opacity="0.69"/><circle cx="349" cy="157" r="1.6" fill="white" opacity="0.66"/><circle cx="888" cy="344" r="1.2" fill="white" opacity="0.71"/><circle cx="142" cy="560" r="1.2" fill="white" opacity="0.37"/><circle cx="355" cy="46" r="1.6" fill="white" opacity="0.91"/><circle cx="98" cy="462" r="0.8" fill="white" opacity="0.64"/><circle cx="41" cy="132" r="1.6" fill="white" opacity="0.48"/><circle cx="1058" cy="141" r="0.8" fill="white" opacity="0.75"/><circle cx="380" cy="399" r="1.0" fill="white" opacity="0.61"/><circle cx="848" cy="80" r="1.2" fill="white" opacity="0.53"/><circle cx="704" cy="178" r="1.0" fill="white" opacity="0.63"/><circle cx="851" cy="294" r="1.2" fill="white" opacity="0.46"/><circle cx="1063" cy="493" r="1.2" fill="white" opacity="0.42"/><circle cx="1074" cy="280" r="0.6" fill="white" opacity="0.86"/><circle cx="473" cy="5" r="0.6" fill="white" opacity="0.88"/><circle cx="676" cy="417" r="1.6" fill="white" opacity="0.82"/><circle cx="373" cy="27" r="1.0" fill="white" opacity="0.86"/><circle cx="720" cy="575" r="1.6" fill="white" opacity="0.83"/><circle cx="443" cy="112" r="1.6" fill="white" opacity="0.78"/><circle cx="1138" cy="581" r="0.8" fill="white" opacity="0.69"/><circle cx="1152" cy="274" r="1.6" fill="white" opacity="0.43"/><circle cx="540" cy="98" r="1.2" fill="white" opacity="0.45"/><circle cx="123" cy="364" r="0.8" fill="white" opacity="0.74"/><circle cx="217" cy="518" r="1.0" fill="white" opacity="0.52"/><circle cx="130" cy="298" r="1.0" fill="white" opacity="0.45"/><circle cx="524" cy="64" r="0.6" fill="white" opacity="0.6"/><circle cx="526" cy="424" r="0.6" fill="white" opacity="0.38"/><circle cx="481" cy="23" r="1.0" fill="white" opacity="0.42"/><circle cx="1149" cy="590" r="1.0" fill="white" opacity="0.54"/><circle cx="933" cy="621" r="1.6" fill="white" opacity="0.37"/><circle cx="827" cy="323" r="1.6" fill="white" opacity="0.48"/><circle cx="947" cy="436" r="0.6" fill="white" opacity="0.76"/><circle cx="1026" cy="257" r="1.2" fill="white" opacity="0.53"/><circle cx="729" cy="59" r="1.2" fill="white" opacity="0.88"/><circle cx="576" cy="338" r="1.0" fill="white" opacity="0.79"/><circle cx="250" cy="304" r="1.2" fill="white" opacity="0.54"/><circle cx="41" cy="555" r="1.0" fill="white" opacity="0.47"/><circle cx="114" cy="115" r="0.8" fill="white" opacity="0.72"/><circle cx="242" cy="38" r="0.8" fill="white" opacity="0.66"/><circle cx="618" cy="29" r="1.2" fill="white" opacity="0.7"/><circle cx="729" cy="425" r="1.2" fill="white" opacity="0.58"/><circle cx="862" cy="224" r="0.8" fill="white" opacity="0.46"/><circle cx="58" cy="554" r="1.6" fill="white" opacity="0.59"/><circle cx="522" cy="151" r="0.8" fill="white" opacity="0.36"/><circle cx="566" cy="554" r="1.2" fill="white" opacity="0.6"/><circle cx="644" cy="141" r="1.6" fill="white" opacity="0.4"/><circle cx="367" cy="566" r="0.6" fill="white" opacity="0.74"/><circle cx="1052" cy="271" r="1.0" fill="white" opacity="0.73"/><circle cx="650" cy="57" r="0.6" fill="white" opacity="0.73"/><circle cx="497" cy="481" r="0.6" fill="white" opacity="0.93"/>
<defs>
  <radialGradient id="glow" cx="50%" cy="50%" r="50%">
    <stop offset="0%" stop-color="#6366f1" stop-opacity="0.5"/>
    <stop offset="60%" stop-color="#6366f1" stop-opacity="0.15"/>
    <stop offset="100%" stop-color="#6366f1" stop-opacity="0"/>
  </radialGradient>
</defs>
<circle cx="920" cy="330" r="200.0" fill="url(#glow)"/>
<ellipse cx="920" cy="330" rx="124.0" ry="39.68" fill="none" stroke="#22d3ee" stroke-width="14.0" opacity="0.85"/><ellipse cx="920" cy="330" rx="148.0" ry="47.36" fill="none" stroke="#22d3ee" stroke-width="11.5" opacity="0.72"/><ellipse cx="920" cy="330" rx="172.0" ry="55.04" fill="none" stroke="#22d3ee" stroke-width="9.0" opacity="0.59"/><ellipse cx="920" cy="330" rx="196.0" ry="62.72" fill="none" stroke="#22d3ee" stroke-width="6.5" opacity="0.46"/><path d="M 780.0 330 A 140.0 44.800000000000004 0 0 1 1060.0 330" fill="none" stroke="#ffb347" stroke-width="12" opacity="0.75"/><path d="M 756.0 330 A 164.0 52.480000000000004 0 0 1 1084.0 330" fill="none" stroke="#ffb347" stroke-width="10" opacity="0.57"/><path d="M 732.0 330 A 188.0 60.160000000000004 0 0 1 1108.0 330" fill="none" stroke="#ffb347" stroke-width="8" opacity="0.39"/>
<circle cx="920" cy="330" r="80" fill="black"/>
<circle cx="920" cy="330" r="84.0" fill="none" stroke="white" stroke-width="2.5" opacity="0.9"/>
<circle cx="774" cy="189" r="3" fill="#e879f9" opacity="0.15"/><circle cx="784" cy="203" r="3" fill="#e879f9" opacity="0.25"/><circle cx="795" cy="217" r="3" fill="#e879f9" opacity="0.35"/><circle cx="805" cy="231" r="3" fill="#e879f9" opacity="0.45"/><circle cx="815" cy="246" r="3" fill="#e879f9" opacity="0.55"/><circle cx="825" cy="260" r="3" fill="#e879f9" opacity="0.65"/><circle cx="835" cy="274" r="3" fill="#e879f9" opacity="0.75"/><circle cx="845" cy="288" r="3" fill="#e879f9" opacity="0.85"/><circle cx="888" cy="282" r="5" fill="#e879f9"/>

<text x="80" y="100" font-family="DejaVu Sans Mono" font-size="22" fill="#22d3ee" font-weight="bold" letter-spacing="3">SCHWARZSCHILD · DEUX HORLOGES</text>

<text x="80" y="220" font-family="DejaVu Sans Mono" font-size="78" fill="#f9fafb" font-weight="bold">Tomber dans</text>
<text x="80" y="300" font-family="DejaVu Sans Mono" font-size="78" fill="#f9fafb" font-weight="bold">un trou noir</text>

<text x="80" y="380" font-family="Liberation Serif" font-size="26" font-style="italic" fill="#9ca3af">deux points de vue, deux horloges</text>

<g transform="translate(80,430)">
  <text x="0" y="0" font-family="DejaVu Sans Mono" font-size="22" fill="#e879f9" font-weight="bold">τ à bord</text>
  <text x="0" y="26" font-family="DejaVu Sans Mono" font-size="20" fill="#f9fafb">≈ 20 minutes</text>
</g>
<g transform="translate(310,430)">
  <text x="0" y="0" font-family="DejaVu Sans Mono" font-size="22" fill="#22d3ee" font-weight="bold">t vu de loin</text>
  <text x="0" y="26" font-family="DejaVu Sans Mono" font-size="20" fill="#f9fafb">→ ∞</text>
</g>

<line x1="80" y1="525" x2="1120" y2="525" stroke="#9ca3af" stroke-width="2" opacity="0.4"/>
<text x="80" y="570" font-family="DejaVu Sans Mono" font-size="26" fill="#f9fafb" font-weight="bold">Prof. Fabrizio Bucella</text>
<text x="80" y="600" font-family="DejaVu Sans Mono" font-size="20" fill="#9ca3af">#salukes · #lasciencepeuttout</text>
</svg>