<svg xmlns="http://www.w3.org/2000/svg" width="1200" height="630" viewBox="0 0 1200 630">
<rect width="1200" height="630" fill="#0a0e1a"/>
<circle cx="228" cy="25" r="1.2" fill="white" opacity="0.53"/><circle cx="285" cy="104" r="0.8" fill="white" opacity="0.72"/><circle cx="65" cy="30" r="0.8" fill="white" opacity="0.52"/><circle cx="1034" cy="616" r="0.8" fill="white" opacity="0.71"/><circle cx="1116" cy="429" r="1.0" fill="white" opacity="0.65"/><circle cx="569" cy="6" r="1.0" fill="white" opacity="0.78"/><circle cx="696" cy="284" r="1.0" fill="white" opacity="0.52"/><circle cx="689" cy="104" r="0.8" fill="white" opacity="0.61"/><circle cx="735" cy="352" r="1.2" fill="white" opacity="0.84"/><circle cx="940" cy="549" r="0.8" fill="white" opacity="0.94"/><circle cx="775" cy="80" r="1.2" fill="white" opacity="0.86"/><circle cx="740" cy="591" r="1.0" fill="white" opacity="0.79"/><circle cx="93" cy="233" r="1.2" fill="white" opacity="0.94"/><circle cx="476" cy="103" r="1.5" fill="white" opacity="0.55"/><circle cx="747" cy="166" r="1.2" fill="white" opacity="0.6"/><circle cx="546" cy="73" r="1.0" fill="white" opacity="0.69"/><circle cx="501" cy="167" r="1.5" fill="white" opacity="0.61"/><circle cx="1140" cy="224" r="1.2" fill="white" opacity="0.86"/><circle cx="114" cy="234" r="0.8" fill="white" opacity="0.84"/><circle cx="821" cy="274" r="0.8" fill="white" opacity="0.52"/><circle cx="1161" cy="322" r="1.0" fill="white" opacity="0.76"/><circle cx="810" cy="469" r="1.0" fill="white" opacity="0.55"/><circle cx="505" cy="574" r="1.2" fill="white" opacity="0.81"/><circle cx="877" cy="597" r="1.5" fill="white" opacity="0.6"/><circle cx="283" cy="521" r="1.5" fill="white" opacity="0.45"/><circle cx="96" cy="112" r="1.0" fill="white" opacity="0.75"/><circle cx="864" cy="610" r="0.8" fill="white" opacity="0.61"/><circle cx="958" cy="541" r="1.2" fill="white" opacity="0.93"/><circle cx="23" cy="117" r="1.2" fill="white" opacity="0.82"/><circle cx="696" cy="114" r="1.2" fill="white" opacity="0.64"/><circle cx="929" cy="3" r="1.2" fill="white" opacity="0.93"/><circle cx="365" cy="519" r="0.8" fill="white" opacity="0.88"/><circle cx="611" cy="519" r="1.0" fill="white" opacity="0.48"/><circle cx="330" cy="552" r="0.8" fill="white" opacity="0.73"/><circle cx="1000" cy="19" r="0.8" fill="white" opacity="0.91"/><circle cx="629" cy="245" r="0.8" fill="white" opacity="0.53"/><circle cx="1161" cy="80" r="0.8" fill="white" opacity="0.8"/><circle cx="141" cy="545" r="1.0" fill="white" opacity="0.47"/><circle cx="973" cy="562" r="1.0" fill="white" opacity="0.55"/><circle cx="866" cy="216" r="1.0" fill="white" opacity="0.79"/><circle cx="817" cy="382" r="1.5" fill="white" opacity="0.89"/><circle cx="924" cy="123" r="1.0" fill="white" opacity="0.52"/><circle cx="692" cy="21" r="1.0" fill="white" opacity="0.72"/><circle cx="14" cy="72" r="0.8" fill="white" opacity="0.53"/><circle cx="64" cy="338" r="0.8" fill="white" opacity="0.68"/><circle cx="570" cy="497" r="1.0" fill="white" opacity="0.7"/><circle cx="1169" cy="590" r="1.5" fill="white" opacity="0.53"/><circle cx="968" cy="416" r="1.0" fill="white" opacity="0.45"/><circle cx="882" cy="362" r="1.5" fill="white" opacity="0.63"/><circle cx="110" cy="100" r="0.8" fill="white" opacity="0.62"/><circle cx="694" cy="111" r="1.0" fill="white" opacity="0.51"/><circle cx="1098" cy="459" r="1.0" fill="white" opacity="0.63"/><circle cx="570" cy="473" r="1.0" fill="white" opacity="0.88"/><circle cx="154" cy="453" r="0.8" fill="white" opacity="0.43"/><circle cx="1107" cy="15" r="0.8" fill="white" opacity="0.91"/><circle cx="484" cy="170" r="1.5" fill="white" opacity="0.67"/><circle cx="437" cy="410" r="0.8" fill="white" opacity="0.49"/><circle cx="4" cy="399" r="1.2" fill="white" opacity="0.91"/><circle cx="931" cy="292" r="1.5" fill="white" opacity="0.78"/><circle cx="1138" cy="498" r="1.0" fill="white" opacity="0.5"/><circle cx="445" cy="59" r="0.8" fill="white" opacity="0.81"/><circle cx="117" cy="51" r="1.5" fill="white" opacity="0.68"/><circle cx="1087" cy="161" r="0.8" fill="white" opacity="0.93"/><circle cx="164" cy="190" r="0.8" fill="white" opacity="0.73"/><circle cx="481" cy="413" r="0.8" fill="white" opacity="0.92"/><circle cx="1166" cy="252" r="0.8" fill="white" opacity="0.74"/><circle cx="858" cy="597" r="1.2" fill="white" opacity="0.91"/><circle cx="418" cy="321" r="1.0" fill="white" opacity="0.55"/><circle cx="268" cy="307" r="1.5" fill="white" opacity="0.57"/><circle cx="148" cy="9" r="1.5" fill="white" opacity="0.74"/><circle cx="1153" cy="102" r="0.8" fill="white" opacity="0.7"/><circle cx="1036" cy="271" r="1.0" fill="white" opacity="0.91"/><circle cx="140" cy="250" r="1.2" fill="white" opacity="0.56"/><circle cx="897" cy="556" r="1.2" fill="white" opacity="0.74"/><circle cx="1083" cy="8" r="1.2" fill="white" opacity="0.91"/><circle cx="212" cy="137" r="1.2" fill="white" opacity="0.46"/><circle cx="219" cy="566" r="1.0" fill="white" opacity="0.55"/><circle cx="431" cy="351" r="1.0" fill="white" opacity="0.78"/><circle cx="540" cy="517" r="1.5" fill="white" opacity="0.54"/><circle cx="104" cy="94" r="1.5" fill="white" opacity="0.86"/><circle cx="90" cy="3" r="1.2" fill="white" opacity="0.82"/><circle cx="536" cy="165" r="1.5" fill="white" opacity="0.7"/><circle cx="875" cy="574" r="0.8" fill="white" opacity="0.46"/><circle cx="305" cy="558" r="0.8" fill="white" opacity="0.86"/><circle cx="1192" cy="565" r="1.0" fill="white" opacity="0.64"/>
<line x1="910.0" y1="470.0" x2="940.0" y2="470.0" stroke="#6fb8ff" stroke-width="0.8" opacity="0.35"/><line x1="950.0" y1="470.0" x2="980.0" y2="470.0" stroke="#6fb8ff" stroke-width="0.8" opacity="0.35"/><line x1="1000.0" y1="470.0" x2="1030.0" y2="470.0" stroke="#6fb8ff" stroke-width="0.8" opacity="0.35"/><line x1="1060.0" y1="470.0" x2="1090.0" y2="470.0" stroke="#6fb8ff" stroke-width="0.8" opacity="0.35"/><line x1="1130.0" y1="470.0" x2="1160.0" y2="470.0" stroke="#6fb8ff" stroke-width="0.8" opacity="0.35"/><line x1="909.5" y1="471.4" x2="938.0" y2="475.6" stroke="#6fb8ff" stroke-width="0.8" opacity="0.35"/><line x1="947.6" y1="477.0" x2="976.1" y2="481.1" stroke="#6fb8ff" stroke-width="0.8" opacity="0.35"/><line x1="995.1" y1="483.9" x2="1023.6" y2="488.1" stroke="#6fb8ff" stroke-width="0.8" opacity="0.35"/><line x1="1052.2" y1="492.2" x2="1080.7" y2="496.4" stroke="#6fb8ff" stroke-width="0.8" opacity="0.35"/><line x1="1118.7" y1="502.0" x2="1147.3" y2="506.2" stroke="#6fb8ff" stroke-width="0.8" opacity="0.35"/><line x1="908.1" y1="472.6" x2="932.4" y2="480.6" stroke="#6fb8ff" stroke-width="0.8" opacity="0.35"/><line x1="940.5" y1="483.2" x2="964.7" y2="491.2" stroke="#6fb8ff" stroke-width="0.8" opacity="0.35"/><line x1="980.9" y1="496.5" x2="1005.2" y2="504.4" stroke="#6fb8ff" stroke-width="0.8" opacity="0.35"/><line x1="1029.4" y1="512.3" x2="1053.7" y2="520.3" stroke="#6fb8ff" stroke-width="0.8" opacity="0.35"/><line x1="1086.1" y1="530.8" x2="1110.3" y2="538.8" stroke="#6fb8ff" stroke-width="0.8" opacity="0.35"/><line x1="905.9" y1="473.6" x2="923.5" y2="484.6" stroke="#6fb8ff" stroke-width="0.8" opacity="0.35"/><line x1="929.4" y1="488.2" x2="947.0" y2="499.1" stroke="#6fb8ff" stroke-width="0.8" opacity="0.35"/><line x1="958.8" y1="506.4" x2="976.4" y2="517.3" stroke="#6fb8ff" stroke-width="0.8" opacity="0.35"/><line x1="994.0" y1="528.2" x2="1011.7" y2="539.2" stroke="#6fb8ff" stroke-width="0.8" opacity="0.35"/><line x1="1035.2" y1="553.7" x2="1052.8" y2="564.7" stroke="#6fb8ff" stroke-width="0.8" opacity="0.35"/><line x1="903.1" y1="474.3" x2="912.4" y2="487.1" stroke="#6fb8ff" stroke-width="0.8" opacity="0.35"/><line x1="915.5" y1="491.4" x2="924.7" y2="504.2" stroke="#6fb8ff" stroke-width="0.8" opacity="0.35"/><line x1="930.9" y1="512.8" x2="940.2" y2="525.6" stroke="#6fb8ff" stroke-width="0.8" opacity="0.35"/><line x1="949.4" y1="538.5" x2="958.7" y2="551.3" stroke="#6fb8ff" stroke-width="0.8" opacity="0.35"/><line x1="971.1" y1="568.4" x2="980.3" y2="581.3" stroke="#6fb8ff" stroke-width="0.8" opacity="0.35"/><line x1="900.0" y1="474.5" x2="900.0" y2="488.0" stroke="#6fb8ff" stroke-width="0.8" opacity="0.35"/><line x1="900.0" y1="492.5" x2="900.0" y2="506.0" stroke="#6fb8ff" stroke-width="0.8" opacity="0.35"/><line x1="900.0" y1="515.0" x2="900.0" y2="528.5" stroke="#6fb8ff" stroke-width="0.8" opacity="0.35"/><line x1="900.0" y1="542.0" x2="900.0" y2="555.5" stroke="#6fb8ff" stroke-width="0.8" opacity="0.35"/><line x1="900.0" y1="573.5" x2="900.0" y2="587.0" stroke="#6fb8ff" stroke-width="0.8" opacity="0.35"/><line x1="896.9" y1="474.3" x2="887.6" y2="487.1" stroke="#6fb8ff" stroke-width="0.8" opacity="0.35"/><line x1="884.5" y1="491.4" x2="875.3" y2="504.2" stroke="#6fb8ff" stroke-width="0.8" opacity="0.35"/><line x1="869.1" y1="512.8" x2="859.8" y2="525.6" stroke="#6fb8ff" stroke-width="0.8" opacity="0.35"/><line x1="850.6" y1="538.5" x2="841.3" y2="551.3" stroke="#6fb8ff" stroke-width="0.8" opacity="0.35"/><line x1="828.9" y1="568.4" x2="819.7" y2="581.3" stroke="#6fb8ff" stroke-width="0.8" opacity="0.35"/><line x1="894.1" y1="473.6" x2="876.5" y2="484.6" stroke="#6fb8ff" stroke-width="0.8" opacity="0.35"/><line x1="870.6" y1="488.2" x2="853.0" y2="499.1" stroke="#6fb8ff" stroke-width="0.8" opacity="0.35"/><line x1="841.2" y1="506.4" x2="823.6" y2="517.3" stroke="#6fb8ff" stroke-width="0.8" opacity="0.35"/><line x1="806.0" y1="528.2" x2="788.3" y2="539.2" stroke="#6fb8ff" stroke-width="0.8" opacity="0.35"/><line x1="764.8" y1="553.7" x2="747.2" y2="564.7" stroke="#6fb8ff" stroke-width="0.8" opacity="0.35"/><line x1="891.9" y1="472.6" x2="867.6" y2="480.6" stroke="#6fb8ff" stroke-width="0.8" opacity="0.35"/><line x1="859.5" y1="483.2" x2="835.3" y2="491.2" stroke="#6fb8ff" stroke-width="0.8" opacity="0.35"/><line x1="819.1" y1="496.5" x2="794.8" y2="504.4" stroke="#6fb8ff" stroke-width="0.8" opacity="0.35"/><line x1="770.6" y1="512.3" x2="746.3" y2="520.3" stroke="#6fb8ff" stroke-width="0.8" opacity="0.35"/><line x1="713.9" y1="530.8" x2="689.7" y2="538.8" stroke="#6fb8ff" stroke-width="0.8" opacity="0.35"/><line x1="890.5" y1="471.4" x2="862.0" y2="475.6" stroke="#6fb8ff" stroke-width="0.8" opacity="0.35"/><line x1="852.4" y1="477.0" x2="823.9" y2="481.1" stroke="#6fb8ff" stroke-width="0.8" opacity="0.35"/><line x1="804.9" y1="483.9" x2="776.4" y2="488.1" stroke="#6fb8ff" stroke-width="0.8" opacity="0.35"/><line x1="747.8" y1="492.2" x2="719.3" y2="496.4" stroke="#6fb8ff" stroke-width="0.8" opacity="0.35"/><line x1="681.3" y1="502.0" x2="652.7" y2="506.2" stroke="#6fb8ff" stroke-width="0.8" opacity="0.35"/><line x1="890.0" y1="470.0" x2="860.0" y2="470.0" stroke="#6fb8ff" stroke-width="0.8" opacity="0.35"/><line x1="850.0" y1="470.0" x2="820.0" y2="470.0" stroke="#6fb8ff" stroke-width="0.8" opacity="0.35"/><line x1="800.0" y1="470.0" x2="770.0" y2="470.0" stroke="#6fb8ff" stroke-width="0.8" opacity="0.35"/><line x1="740.0" y1="470.0" x2="710.0" y2="470.0" stroke="#6fb8ff" stroke-width="0.8" opacity="0.35"/><line x1="670.0" y1="470.0" x2="640.0" y2="470.0" stroke="#6fb8ff" stroke-width="0.8" opacity="0.35"/><line x1="890.5" y1="468.6" x2="862.0" y2="464.4" stroke="#6fb8ff" stroke-width="0.8" opacity="0.35"/><line x1="852.4" y1="463.0" x2="823.9" y2="458.9" stroke="#6fb8ff" stroke-width="0.8" opacity="0.35"/><line x1="804.9" y1="456.1" x2="776.4" y2="451.9" stroke="#6fb8ff" stroke-width="0.8" opacity="0.35"/><line x1="747.8" y1="447.8" x2="719.3" y2="443.6" stroke="#6fb8ff" stroke-width="0.8" opacity="0.35"/><line x1="681.3" y1="438.0" x2="652.7" y2="433.8" stroke="#6fb8ff" stroke-width="0.8" opacity="0.35"/><line x1="891.9" y1="467.4" x2="867.6" y2="459.4" stroke="#6fb8ff" stroke-width="0.8" opacity="0.35"/><line x1="859.5" y1="456.8" x2="835.3" y2="448.8" stroke="#6fb8ff" stroke-width="0.8" opacity="0.35"/><line x1="819.1" y1="443.5" x2="794.8" y2="435.6" stroke="#6fb8ff" stroke-width="0.8" opacity="0.35"/><line x1="770.6" y1="427.7" x2="746.3" y2="419.7" stroke="#6fb8ff" stroke-width="0.8" opacity="0.35"/><line x1="713.9" y1="409.2" x2="689.7" y2="401.2" stroke="#6fb8ff" stroke-width="0.8" opacity="0.35"/><line x1="894.1" y1="466.4" x2="876.5" y2="455.4" stroke="#6fb8ff" stroke-width="0.8" opacity="0.35"/><line x1="870.6" y1="451.8" x2="853.0" y2="440.9" stroke="#6fb8ff" stroke-width="0.8" opacity="0.35"/><line x1="841.2" y1="433.6" x2="823.6" y2="422.7" stroke="#6fb8ff" stroke-width="0.8" opacity="0.35"/><line x1="806.0" y1="411.8" x2="788.3" y2="400.8" stroke="#6fb8ff" stroke-width="0.8" opacity="0.35"/><line x1="764.8" y1="386.3" x2="747.2" y2="375.3" stroke="#6fb8ff" stroke-width="0.8" opacity="0.35"/><line x1="896.9" y1="465.7" x2="887.6" y2="452.9" stroke="#6fb8ff" stroke-width="0.8" opacity="0.35"/><line x1="884.5" y1="448.6" x2="875.3" y2="435.8" stroke="#6fb8ff" stroke-width="0.8" opacity="0.35"/><line x1="869.1" y1="427.2" x2="859.8" y2="414.4" stroke="#6fb8ff" stroke-width="0.8" opacity="0.35"/><line x1="850.6" y1="401.5" x2="841.3" y2="388.7" stroke="#6fb8ff" stroke-width="0.8" opacity="0.35"/><line x1="828.9" y1="371.6" x2="819.7" y2="358.7" stroke="#6fb8ff" stroke-width="0.8" opacity="0.35"/><line x1="900.0" y1="465.5" x2="900.0" y2="452.0" stroke="#6fb8ff" stroke-width="0.8" opacity="0.35"/><line x1="900.0" y1="447.5" x2="900.0" y2="434.0" stroke="#6fb8ff" stroke-width="0.8" opacity="0.35"/><line x1="900.0" y1="425.0" x2="900.0" y2="411.5" stroke="#6fb8ff" stroke-width="0.8" opacity="0.35"/><line x1="900.0" y1="398.0" x2="900.0" y2="384.5" stroke="#6fb8ff" stroke-width="0.8" opacity="0.35"/><line x1="900.0" y1="366.5" x2="900.0" y2="353.0" stroke="#6fb8ff" stroke-width="0.8" opacity="0.35"/><line x1="903.1" y1="465.7" x2="912.4" y2="452.9" stroke="#6fb8ff" stroke-width="0.8" opacity="0.35"/><line x1="915.5" y1="448.6" x2="924.7" y2="435.8" stroke="#6fb8ff" stroke-width="0.8" opacity="0.35"/><line x1="930.9" y1="427.2" x2="940.2" y2="414.4" stroke="#6fb8ff" stroke-width="0.8" opacity="0.35"/><line x1="949.4" y1="401.5" x2="958.7" y2="388.7" stroke="#6fb8ff" stroke-width="0.8" opacity="0.35"/><line x1="971.1" y1="371.6" x2="980.3" y2="358.7" stroke="#6fb8ff" stroke-width="0.8" opacity="0.35"/><line x1="905.9" y1="466.4" x2="923.5" y2="455.4" stroke="#6fb8ff" stroke-width="0.8" opacity="0.35"/><line x1="929.4" y1="451.8" x2="947.0" y2="440.9" stroke="#6fb8ff" stroke-width="0.8" opacity="0.35"/><line x1="958.8" y1="433.6" x2="976.4" y2="422.7" stroke="#6fb8ff" stroke-width="0.8" opacity="0.35"/><line x1="994.0" y1="411.8" x2="1011.7" y2="400.8" stroke="#6fb8ff" stroke-width="0.8" opacity="0.35"/><line x1="1035.2" y1="386.3" x2="1052.8" y2="375.3" stroke="#6fb8ff" stroke-width="0.8" opacity="0.35"/><line x1="908.1" y1="467.4" x2="932.4" y2="459.4" stroke="#6fb8ff" stroke-width="0.8" opacity="0.35"/><line x1="940.5" y1="456.8" x2="964.7" y2="448.8" stroke="#6fb8ff" stroke-width="0.8" opacity="0.35"/><line x1="980.9" y1="443.5" x2="1005.2" y2="435.6" stroke="#6fb8ff" stroke-width="0.8" opacity="0.35"/><line x1="1029.4" y1="427.7" x2="1053.7" y2="419.7" stroke="#6fb8ff" stroke-width="0.8" opacity="0.35"/><line x1="1086.1" y1="409.2" x2="1110.3" y2="401.2" stroke="#6fb8ff" stroke-width="0.8" opacity="0.35"/><line x1="909.5" y1="468.6" x2="938.0" y2="464.4" stroke="#6fb8ff" stroke-width="0.8" opacity="0.35"/><line x1="947.6" y1="463.0" x2="976.1" y2="458.9" stroke="#6fb8ff" stroke-width="0.8" opacity="0.35"/><line x1="995.1" y1="456.1" x2="1023.6" y2="451.9" stroke="#6fb8ff" stroke-width="0.8" opacity="0.35"/><line x1="1052.2" y1="447.8" x2="1080.7" y2="443.6" stroke="#6fb8ff" stroke-width="0.8" opacity="0.35"/><line x1="1118.7" y1="438.0" x2="1147.3" y2="433.8" stroke="#6fb8ff" stroke-width="0.8" opacity="0.35"/><ellipse cx="900" cy="487.6" rx="40" ry="18.0" fill="none" stroke="#6fb8ff" stroke-width="0.9" opacity="0.45"/><ellipse cx="900" cy="484.4" rx="80" ry="36.0" fill="none" stroke="#6fb8ff" stroke-width="0.9" opacity="0.45"/><ellipse cx="900" cy="480.4" rx="130" ry="58.5" fill="none" stroke="#6fb8ff" stroke-width="0.9" opacity="0.45"/><ellipse cx="900" cy="475.6" rx="190" ry="85.5" fill="none" stroke="#6fb8ff" stroke-width="0.9" opacity="0.45"/><ellipse cx="900" cy="470.0" rx="260" ry="117.0" fill="none" stroke="#6fb8ff" stroke-width="0.9" opacity="0.45"/>
<circle cx="900" cy="470" r="34" fill="#e6d72a" opacity="0.18"/>
<circle cx="900" cy="470" r="22" fill="#e6d72a" opacity="0.95"/>
<circle cx="700.8" cy="394.8" r="9" fill="#2e6dd8"/>
<circle cx="704.6" cy="404.5" r="4" fill="#cccccc"/>
<text x="80" y="100" font-family="DejaVu Sans Mono" font-size="22" fill="#6fb8ff" font-weight="bold" letter-spacing="3">RELATIVITÉ GÉNÉRALE</text>
<text x="80" y="240" font-family="DejaVu Sans Mono" font-size="86" fill="#e8ecf4" font-weight="bold">Courbure</text>
<text x="80" y="335" font-family="DejaVu Sans Mono" font-size="86" fill="#e8ecf4" font-weight="bold">spatio-temporelle</text>
<text x="80" y="410" font-family="Liberation Serif" font-size="28" font-style="italic" fill="#8892a8">Diagramme d'encastrement</text>
<text x="80" y="445" font-family="Liberation Serif" font-size="28" font-style="italic">
<tspan fill="#e6d72a">☉ Soleil</tspan>
<tspan fill="#8892a8"> · </tspan>
<tspan fill="#6fb8ff">⊕ Terre</tspan>
<tspan fill="#8892a8"> · </tspan>
<tspan fill="#cfcfcf">☾ Lune</tspan>
</text>
<line x1="80" y1="525" x2="1120" y2="525" stroke="#8892a8" stroke-width="2" opacity="0.4"/>
<text x="80" y="570" font-family="DejaVu Sans Mono" font-size="26" fill="#e8ecf4" font-weight="bold">Prof. Fabrizio Bucella</text>
<text x="80" y="600" font-family="DejaVu Sans Mono" font-size="20" fill="#8892a8">#salukes · #lasciencepeuttout</text>
</svg>